<?xml version="1.0" standalone="no"?><!DOCTYPE svg PUBLIC "-//W3C//DTD SVG 1.1//EN" "http://www.w3.org/Graphics/SVG/1.1/DTD/svg11.dtd"><svg t="1645705013051" class="icon" viewBox="0 0 1024 1024" version="1.1" xmlns="http://www.w3.org/2000/svg" p-id="1407" xmlns:xlink="http://www.w3.org/1999/xlink" width="100" height="100"><defs><style type="text/css"></style></defs><path d="M414.2 78H158.6c-41.5 0-75.3 33.8-75.3 75.3v255.5c0 41.5 33.8 75.3 75.3 75.3h255.5c41.5 0 75.3-33.8 75.3-75.3V153.3c0-41.5-33.7-75.3-75.2-75.3z m5.2 330.8c0 2.9-2.4 5.3-5.3 5.3H158.6c-2.9 0-5.3-2.4-5.3-5.3V153.3c0-2.9 2.4-5.3 5.3-5.3h255.5c2.9 0 5.3 2.4 5.3 5.3v255.5zM414.2 544.8H158.6c-41.5 0-75.3 33.8-75.3 75.3v255.5c0 41.5 33.8 75.3 75.3 75.3h255.5c41.5 0 75.3-33.8 75.3-75.3V620.1c0-41.5-33.7-75.3-75.2-75.3z m5.2 330.8c0 2.9-2.4 5.3-5.3 5.3H158.6c-2.9 0-5.3-2.4-5.3-5.3V620.1c0-2.9 2.4-5.3 5.3-5.3h255.5c2.9 0 5.3 2.4 5.3 5.3v255.5zM908.8 119.3H607.2c-19.3 0-35 15.7-35 35s15.7 35 35 35h301.6c19.3 0 35-15.7 35-35s-15.7-35-35-35zM908.8 343.8H607.2c-19.3 0-35 15.7-35 35s15.7 35 35 35h301.6c19.3 0 35-15.7 35-35s-15.7-35-35-35zM908.8 568.3H607.2c-19.3 0-35 15.7-35 35s15.7 35 35 35h301.6c19.3 0 35-15.7 35-35s-15.7-35-35-35zM908.8 792.8H607.2c-19.3 0-35 15.7-35 35s15.7 35 35 35h301.6c19.3 0 35-15.7 35-35s-15.7-35-35-35z" p-id="1408"></path></svg>