<?xml version="1.0" standalone="no"?><!DOCTYPE svg PUBLIC "-//W3C//DTD SVG 1.1//EN" "http://www.w3.org/Graphics/SVG/1.1/DTD/svg11.dtd"><svg t="1590550982850" class="icon" viewBox="0 0 1208 1024" version="1.1" xmlns="http://www.w3.org/2000/svg" p-id="10599" xmlns:xlink="http://www.w3.org/1999/xlink" width="151" height="128"><defs><style type="text/css"></style></defs><path d="M1122.613526 0.029013H86.354887A84.250057 84.250057 0 0 0 0 82.003579v655.398319A84.363832 84.363832 0 0 0 86.354887 819.205803h431.660658v122.819631H302.29899a42.21036 42.21036 0 0 0-43.291217 41.015727V1024H950.017527v-41.015727a42.096585 42.096585 0 0 0-43.291218-41.015727h-216.171652V819.205803h431.83132a84.250057 84.250057 0 0 0 86.354886-81.974567V82.003579A84.079396 84.079396 0 0 0 1122.613526 0.029013zM561.079214 737.401898a43.348105 43.348105 0 1 1 43.291218 41.015727 42.096585 42.096585 0 0 1-43.291218-41.015727z m-474.724327-81.974566V82.003579h1036.258639v573.423753z m0 0" p-id="10600"></path></svg>