<?xml version="1.0" standalone="no"?><!DOCTYPE svg PUBLIC "-//W3C//DTD SVG 1.1//EN" "http://www.w3.org/Graphics/SVG/1.1/DTD/svg11.dtd"><svg t="1590551411584" class="icon" viewBox="0 0 1024 1024" version="1.1" xmlns="http://www.w3.org/2000/svg" p-id="2728" xmlns:xlink="http://www.w3.org/1999/xlink" width="128" height="128"><defs><style type="text/css"></style></defs><path d="M724.029542 0H299.970662A116.92032 116.92032 0 0 0 184.320102 118.14912V905.8304A116.92032 116.92032 0 0 0 299.970662 1024h424.05888A116.9408 116.9408 0 0 0 839.680102 905.8304V118.14912A116.9408 116.9408 0 0 0 724.029542 0zM473.456742 39.38304h77.08672a19.70176 19.70176 0 0 1 0 39.38304h-77.08672a19.70176 19.70176 0 0 1 0-39.38304zM512.000102 975.872a50.36032 50.36032 0 1 1 49.27488-50.33984A49.80736 49.80736 0 0 1 512.000102 975.872z m250.5728-168.48896a19.456 19.456 0 0 1-19.27168 19.68128H280.698982a19.456 19.456 0 0 1-19.27168-19.68128V137.85088a19.47648 19.47648 0 0 1 19.27168-19.70176h462.60224a19.47648 19.47648 0 0 1 19.27168 19.70176v669.53216z" p-id="2729" fill="#333333"></path></svg>